<?xml version="1.0" encoding="UTF-8" standalone="no"?>
<!-- Created with Inkscape (http://www.inkscape.org/) -->

<svg
   width="1920"
   height="1080"
   viewBox="0 0 1920 1080"
   version="1.1"
   id="svg1"
   inkscape:version="1.3.2 (091e20e, 2023-11-25)"
   sodipodi:docname="描画-1.svg"
   xmlns:inkscape="http://www.inkscape.org/namespaces/inkscape"
   xmlns:sodipodi="http://sodipodi.sourceforge.net/DTD/sodipodi-0.dtd"
   xmlns="http://www.w3.org/2000/svg"
   xmlns:svg="http://www.w3.org/2000/svg">
  <sodipodi:namedview
     id="namedview1"
     pagecolor="#ffffff"
     bordercolor="#000000"
     borderopacity="0.25"
     inkscape:showpageshadow="2"
     inkscape:pageopacity="0.0"
     inkscape:pagecheckerboard="0"
     inkscape:deskcolor="#d1d1d1"
     inkscape:document-units="px"
     inkscape:zoom="0.36315827"
     inkscape:cx="1135.8684"
     inkscape:cy="337.31849"
     inkscape:window-width="1440"
     inkscape:window-height="900"
     inkscape:window-x="0"
     inkscape:window-y="0"
     inkscape:window-maximized="0"
     inkscape:current-layer="layer1" />
  <defs
     id="defs1" />
  <g
     inkscape:label="Layer 1"
     inkscape:groupmode="layer"
     id="layer1">
    <path
       style="color:#000000;-inkscape-font-specification:'Arial Bold';fill:#d92b44;stroke-linejoin:round;-inkscape-stroke:none;paint-order:stroke markers fill"
       d="m 1247.3164,77.115234 -32.4473,0.128907 a 0.37799079,0.37799079 0 0 0 -0.3769,0.380859 l 0.3047,76.35352 a 0.37799079,0.37799079 0 0 0 0.3808,0.37695 l 15.4161,-0.0625 a 0.37799079,0.37799079 0 0 0 0.3769,-0.37891 l -0.1269,-31.49804 2.748,-0.01 c 3.5207,-0.0141 6.0828,0.27771 7.6348,0.83203 a 0.37799079,0.37799079 0 0 0 0.01,0.002 c 1.5642,0.52554 3.0624,1.53689 4.4942,3.0586 a 0.37799079,0.37799079 0 0 0 0,0.004 c 1.4133,1.46878 4.1505,5.19703 8.1289,11.11329 a 0.37799079,0.37799079 0 0 0 0,0.002 l 11.2129,16.57031 a 0.37799079,0.37799079 0 0 0 0.3145,0.16602 l 18.4375,-0.0742 a 0.37799079,0.37799079 0 0 0 0.3183,-0.58008 l -9.3828,-14.85742 v 0 c -3.7096,-5.93111 -6.6623,-10.06041 -8.8965,-12.41797 v -0.002 c -2.0102,-2.15457 -4.5765,-4.11518 -7.5742,-5.92969 6.29,-1.08514 11.1384,-3.392 14.4024,-7.02149 a 0.37799079,0.37799079 0 0 0 0,-0.002 c 3.4163,-3.8349 5.1147,-8.689 5.0918,-14.492186 -0.018,-4.575885 -1.1657,-8.658954 -3.4415,-12.21875 -2.2757,-3.55973 -5.3283,-6.04158 -9.125,-7.408203 -3.7727,-1.405629 -9.7194,-2.067907 -17.8984,-2.035157 z m 0,0.75586 c 8.1382,-0.03259 14.037,0.646365 17.6367,1.988281 a 0.37799079,0.37799079 0 0 0 0,0.002 c 3.6447,1.31194 6.5473,3.667194 8.7441,7.103516 2.1968,3.436253 3.3045,7.364567 3.3223,11.816406 0.022,5.655083 -1.6113,10.292353 -4.9004,13.984383 -3.2808,3.64758 -8.2116,5.98051 -14.8496,6.9707 a 0.37799079,0.37799079 0 0 0 -0.1328,0.70117 c 3.315,1.91598 6.0364,4.01771 8.1679,6.30273 a 0.37799079,0.37799079 0 0 0 0,0.002 c 2.1592,2.27793 5.1064,6.38774 8.8047,12.30078 a 0.37799079,0.37799079 0 0 0 0,0.002 l 9.0176,14.28125 -17.5527,0.0703 -11.0996,-16.40234 c -3.9857,-5.92698 -6.6954,-9.63977 -8.211,-11.21484 -1.4949,-1.58806 -3.0922,-2.68128 -4.7929,-3.25391 -1.7167,-0.61315 -4.3299,-0.88926 -7.8926,-0.875 l -3.125,0.0117 a 0.37799079,0.37799079 0 0 0 -0.377,0.37891 l 0.127,31.49804 -14.6621,0.0586 L 1215.25,78 Z m 65.625,2.757812 a 0.37799079,0.37799079 0 0 0 -0.4414,0.300781 l -14.1817,75.027343 a 0.37799079,0.37799079 0 0 0 0.3008,0.44141 l 57.0625,10.78515 a 0.37799079,0.37799079 0 0 0 0.4414,-0.30078 l 2.3906,-12.64062 a 0.37799079,0.37799079 0 0 0 -0.3008,-0.44336 l -41.5429,-7.85156 3.7187,-19.67579 37.2949,7.04883 a 0.37799079,0.37799079 0 0 0 0.4415,-0.30078 l 2.3886,-12.64258 a 0.37799079,0.37799079 0 0 0 -0.3008,-0.4414 l -37.2949,-7.04883 3.0039,-15.888673 40.1094,7.580083 a 0.37799079,0.37799079 0 0 0 0.4414,-0.30079 l 2.3984,-12.691403 a 0.37799079,0.37799079 0 0 0 -0.3007,-0.441406 z m -135.9864,0.589844 -15.1035,3.087891 a 0.37799079,0.37799079 0 0 0 -0.2949,0.447265 l 8.4629,41.382814 c 1.2084,5.90997 1.8477,10.18469 1.9258,12.77734 0.077,2.55075 -0.7507,4.87525 -2.5157,7.0293 -1.7448,2.08738 -4.7128,3.59077 -8.9492,4.45703 -4.1626,0.85119 -7.592,0.61041 -10.3222,-0.67969 v -0.002 c -2.7196,-1.33966 -4.6798,-3.41077 -5.92,-6.26367 v -0.002 c -4e-4,-8.7e-4 0,-0.001 0,-0.002 -0.7328,-1.75531 -1.781,-5.89237 -3.0938,-12.3125 l -8.2851,-40.515623 a 0.37799079,0.37799079 0 0 0 -0.4453,-0.294922 l -15.1036,3.087891 a 0.37799079,0.37799079 0 0 0 -0.2949,0.445312 l 8.1602,39.904292 c 1.7141,8.38307 3.5014,14.62823 5.3867,18.76172 1.298,2.80937 3.3147,5.34049 6.0372,7.58594 a 0.37799079,0.37799079 0 0 0 0,0.002 c 2.7304,2.22321 6.1349,3.79271 10.1953,4.71875 a 0.37799079,0.37799079 0 0 0 0,0.002 c 4.1295,0.8936 9.7635,0.58765 16.9356,-0.87891 5.9504,-1.21675 10.6375,-2.95473 14.0644,-5.24219 a 0.37799079,0.37799079 0 0 0 0,-0.002 c 3.4002,-2.30874 5.9544,-4.99165 7.6426,-8.04687 v -0.002 c 1.7223,-3.06208 2.6111,-6.5664 2.6699,-10.49414 0.059,-3.93902 -0.8371,-10.37316 -2.6758,-19.36523 l -8.0332,-39.291018 a 0.37799079,0.37799079 0 0 0 -0.4473,-0.294922 z m 136.2168,0.222656 54.8867,10.375 -2.2578,11.949224 -40.1113,-7.582036 a 0.37799079,0.37799079 0 0 0 -0.4414,0.302734 l -3.1426,16.630862 a 0.37799079,0.37799079 0 0 0 0.3008,0.44336 l 37.2949,7.04883 -2.248,11.89648 -37.2949,-7.04883 a 0.37799079,0.37799079 0 0 0 -0.4434,0.30274 l -3.8594,20.41796 a 0.37799079,0.37799079 0 0 0 0.3028,0.44336 l 41.541,7.85157 -2.2481,11.89843 -56.3203,-10.64648 z m -136.4355,0.59375 7.959,38.919924 c 1.8341,8.96963 2.7174,15.39224 2.6601,19.20312 -0.057,3.82149 -0.9176,7.19407 -2.5742,10.13867 a 0.37799079,0.37799079 0 0 0 0,0.002 c -1.6227,2.93735 -4.0851,5.532 -7.4062,7.78711 -3.3089,2.20828 -7.9078,3.92703 -13.795,5.13086 -7.1137,1.45462 -12.6649,1.73573 -16.6191,0.88086 -3.9681,-0.90499 -7.256,-2.43007 -9.8828,-4.56836 v -0.002 c -2.6474,-2.18405 -4.587,-4.62028 -5.832,-7.31445 v -0.002 c -1.8405,-4.0357 -3.626,-10.24268 -5.334,-18.59571 l -8.084,-39.535152 14.3633,-2.935547 8.209,40.144529 c 1.3161,6.43666 2.3439,10.55431 3.1387,12.45703 a 0.37799079,0.37799079 0 0 0 0,0.006 c 1.3041,3.00248 3.4124,5.23445 6.2852,6.64844 a 0.37799079,0.37799079 0 0 0 0.01,0.002 c 2.9192,1.38068 6.5308,1.61184 10.8028,0.73828 4.3363,-0.88669 7.477,-2.44 9.3769,-4.71289 a 0.37799079,0.37799079 0 0 0 0,-0.002 c 1.8639,-2.27323 2.7716,-4.80371 2.6894,-7.53516 -0.081,-2.69096 -0.7292,-6.97783 -1.9414,-12.90624 l -8.3867,-41.013677 z m 65.6289,8.015625 -12.0313,0.04883 a 0.37799079,0.37799079 0 0 0 -0.375,0.378907 l 0.076,19.375002 a 0.37799079,0.37799079 0 0 0 0.3809,0.37695 l 11.4062,-0.0449 c 7.4064,-0.0297 11.9871,-0.33113 13.9707,-1.01367 1.9059,-0.65582 3.4198,-1.7947 4.5,-3.39258 1.0848,-1.60481 1.6149,-3.6003 1.6055,-5.94922 -0.01,-2.636479 -0.7403,-4.804181 -2.2031,-6.4375 -1.4245,-1.664237 -3.4498,-2.703998 -6.0157,-3.121094 a 0.37799079,0.37799079 0 0 0 -0.012,-0.002 c -1.3358,-0.180071 -5.0493,-0.24379 -11.3027,-0.21875 z m 0,0.75586 c 6.2442,-0.025 10.0282,0.05586 11.1953,0.21289 4e-4,5.5e-5 0,-5.5e-5 0,0 2.4299,0.396931 4.262,1.354463 5.5567,2.869141 a 0.37799079,0.37799079 0 0 0 0.01,0.0059 c 1.3267,1.480311 2.002,3.438144 2.0117,5.939453 0.01,2.234385 -0.4883,4.062415 -1.4746,5.521485 -0.991,1.46599 -2.3515,2.49264 -4.1211,3.10156 -1.692,0.58222 -6.3434,0.9431 -13.7285,0.97266 l -11.0293,0.043 -0.072,-18.619143 z m -154.4102,11.527339 -56.1992,22.875 a 0.37799079,0.37799079 0 0 0 -0.209,0.49219 l 4.8711,11.96485 a 0.37799079,0.37799079 0 0 0 0.4922,0.20703 l 20.6348,-8.39844 23.7734,58.40625 a 0.37799079,0.37799079 0 0 0 0.4922,0.20703 l 14.2793,-5.8125 a 0.37799079,0.37799079 0 0 0 0.207,-0.49219 l -23.7734,-58.40625 20.5859,-8.3789 a 0.37799079,0.37799079 0 0 0 0.2071,-0.49414 l -4.8692,-11.96289 a 0.37799079,0.37799079 0 0 0 -0.4922,-0.20704 z m -0.064,0.8418 4.584,11.26367 -20.586,8.37891 a 0.37799079,0.37799079 0 0 0 -0.207,0.49414 l 23.7734,58.40625 -13.58,5.52734 -23.7735,-58.4082 a 0.37799079,0.37799079 0 0 0 -0.4922,-0.20703 l -20.6347,8.40039 -4.584,-11.26367 z m 354.1953,13.39453 a 0.37799079,0.37799079 0 0 0 -0.498,0.19336 l -30.9297,69.8086 a 0.37799079,0.37799079 0 0 0 0.1933,0.5 l 14.0957,6.24414 a 0.37799079,0.37799079 0 0 0 0.4981,-0.19141 l 30.9277,-69.81055 a 0.37799079,0.37799079 0 0 0 -0.1914,-0.49804 z m 0.039,0.84375 13.4043,5.9375 -30.6211,69.1211 -13.4063,-5.93946 z m -438.5645,22.47852 -12.94726,8.36914 a 0.37799079,0.37799079 0 0 0 -0.11328,0.52148 l 22.92964,35.47461 c 3.2745,5.06616 5.4242,8.81626 6.4395,11.20313 0.9994,2.34961 1.0735,4.81677 0.2109,7.46679 -0.8674,2.57757 -3.0851,5.05629 -6.7148,7.40235 -3.5699,2.30741 -6.8536,3.32952 -9.8672,3.11914 -3.0193,-0.25954 -5.5991,-1.47782 -7.79101,-3.6836 l -0.002,-0.002 c -6.8e-4,-6.8e-4 -10e-4,-0.001 -0.002,-0.002 -1.32085,-1.36906 -3.80255,-4.84079 -7.35937,-10.34375 L 965.90234,164.6875 a 0.37799079,0.37799079 0 0 0 -0.52343,-0.11328 l -12.94727,8.36914 a 0.37799079,0.37799079 0 0 0 -0.11133,0.52148 l 22.10742,34.20703 c 4.64475,7.18615 8.58072,12.3524 11.83985,15.51758 a 0.37799079,0.37799079 0 0 0 0.002,0.002 c 2.23053,2.14521 5.0303,3.76715 8.38281,4.86914 a 0.37799079,0.37799079 0 0 0 0.002,0.002 c 3.35183,1.07836 7.09561,1.30307 11.21481,0.68945 4.1718,-0.6689 9.3071,-3.00084 15.4551,-6.97461 5.1008,-3.29689 8.8366,-6.62121 11.1973,-9.99804 a 0.37799079,0.37799079 0 0 0 0,-0.002 c 2.3276,-3.38627 3.7331,-6.81424 4.1953,-10.27343 V 201.5 c 0.4904,-3.47796 0.043,-7.06644 -1.3301,-10.74609 -1.377,-3.69098 -4.551,-9.36017 -9.5332,-17.06836 l -21.7695,-33.68164 a 0.37799079,0.37799079 0 0 0 -0.5215,-0.11133 z m 0.092,0.83984 21.5645,33.36328 c 4.9697,7.68896 8.1287,13.35098 9.4609,16.92188 1.3358,3.58086 1.7595,7.03555 1.2871,10.38086 a 0.37799079,0.37799079 0 0 0 0,0.002 c -0.4438,3.32633 -1.7924,6.63898 -4.0664,9.94727 -2.2795,3.26023 -5.9396,6.53296 -10.9863,9.79492 -6.0997,3.9425 -11.1692,6.22273 -15.1641,6.86328 -4.025,0.59905 -7.64316,0.37318 -10.86718,-0.66406 -3.26001,-1.07194 -5.95254,-2.63654 -8.0918,-4.69336 l -0.002,-0.002 c -3.1817,-3.09043 -7.10263,-8.22477 -11.73047,-15.38476 l -21.90234,-33.88867 12.3125,-7.95899 22.24218,34.41406 c 3.56631,5.51764 6.021,8.97934 7.45313,10.4629 a 0.37799079,0.37799079 0 0 0 0.004,0.004 c 2.30649,2.32287 5.08318,3.63545 8.27338,3.9082 a 0.37799079,0.37799079 0 0 0 0.01,0 c 3.2213,0.22489 6.6699,-0.8713 10.332,-3.23828 3.7172,-2.40256 6.0779,-4.99072 7.0215,-7.79882 a 0.37799079,0.37799079 0 0 0 0,-0.004 c 0.9098,-2.79533 0.8372,-5.48341 -0.2324,-7.99805 -1.0538,-2.47738 -3.2173,-6.23444 -6.502,-11.3164 l -22.72455,-35.15625 z m 483.8691,2.84961 c -2.0692,0.26742 -4.0422,0.8377 -5.9179,1.71484 a 0.37799079,0.37799079 0 0 0 0,0.002 c -3.6938,1.73866 -6.5975,4.3003 -8.6836,7.66601 -3.2343,5.21837 -3.9563,10.94139 -2.1601,17.06836 1.2917,4.40193 4.9338,9.62512 10.9004,15.74219 4.6162,4.73936 7.5321,7.85839 8.7129,9.31055 1.7236,2.15576 2.6609,4.02086 2.8554,5.55078 a 0.37799079,0.37799079 0 0 0 0,0.0117 c 0.2423,1.54065 -0.079,3.01743 -0.9903,4.48828 -1.4218,2.29406 -3.6725,3.65405 -6.8613,4.10742 -3.1003,0.43591 -6.7375,-0.60201 -10.9121,-3.18945 -3.9297,-2.43563 -6.4049,-5.33343 -7.4902,-8.70313 v -0.002 c -1.0532,-3.34451 -0.6765,-7.3528 1.1875,-12.05469 a 0.37799079,0.37799079 0 0 0 -0.1856,-0.47851 l -13.5176,-6.66211 a 0.37799079,0.37799079 0 0 0 -0.5097,0.17773 c -3.6727,7.85193 -4.4973,15.12314 -2.4278,21.75781 a 0.37799079,0.37799079 0 0 0 0,0.002 c 2.0911,6.61402 7.2968,12.47401 15.5508,17.58984 5.6667,3.51225 10.9021,5.67102 15.7148,6.45898 4.8319,0.75813 9.3414,0.13976 13.4883,-1.85937 4.137,-1.99437 7.3907,-4.89177 9.7324,-8.66992 2.5698,-4.14581 3.8591,-8.19329 3.8379,-12.12891 v -0.004 c 0.026,-3.93047 -1.0238,-7.6835 -3.1348,-11.23047 -2.0644,-3.56032 -5.8195,-8.05316 -11.2734,-13.52149 -5.4288,-5.44311 -8.5205,-9.40617 -9.2598,-11.65429 -0.5946,-1.81398 -0.44,-3.38601 0.4551,-4.83008 0.9879,-1.59396 2.3742,-2.424 4.2832,-2.56055 3.0184,-0.22113 6.4068,0.80818 10.17,3.14063 3.6463,2.25999 5.8739,4.65577 6.748,7.14843 a 0.37799079,0.37799079 0 0 0 0,0.006 c 0.9204,2.48381 0.6752,5.5189 -0.8086,9.14649 a 0.37799079,0.37799079 0 0 0 0.164,0.47265 l 13.461,7.54688 a 0.37799079,0.37799079 0 0 0 0.5117,-0.14063 c 3.5301,-6.16249 4.3365,-12.40507 2.3887,-18.63281 v -0.002 c -1.9259,-6.23143 -7.0211,-11.87384 -15.2129,-16.95117 -5.0201,-3.11144 -9.7983,-5.02497 -14.336,-5.72461 -2.2536,-0.34053 -4.419,-0.37679 -6.4883,-0.10938 z m 0.1,0.74609 c 1.9934,-0.25748 4.0829,-0.21947 6.2734,0.11133 4.4114,0.68018 9.0973,2.54776 14.0527,5.61914 8.0987,5.01959 13.0363,10.53784 14.8887,16.53321 a 0.37799079,0.37799079 0 0 0 0,0.002 c 1.8527,5.92199 1.1163,11.78976 -2.1661,17.69141 l -12.8535,-7.20704 c 1.4046,-3.58866 1.7061,-6.73602 0.7324,-9.36328 -0.9577,-2.72451 -3.3313,-5.22382 -7.0605,-7.53515 -3.8512,-2.38699 -7.3936,-3.48855 -10.6231,-3.25196 -2.1091,0.15087 -3.7756,1.14547 -4.873,2.91602 -1.0074,1.62529 -1.1801,3.48511 -0.5312,5.46484 0.8467,2.57486 3.9882,6.48164 9.4433,11.95118 5.43,5.44432 9.1513,9.91283 11.1543,13.36718 a 0.37799079,0.37799079 0 0 0 0,0.004 c 2.0499,3.44291 3.0567,7.04961 3.0312,10.8457 a 0.37799079,0.37799079 0 0 0 0,0.004 c 0.022,3.76959 -1.2099,7.6775 -3.7246,11.73437 -2.2679,3.65917 -5.3987,6.44717 -9.418,8.38477 -4.0081,1.93228 -8.3416,2.53122 -13.039,1.79492 v 0 c -4.6807,-0.76696 -9.8297,-2.8809 -15.4356,-6.35547 -8.1546,-5.05427 -13.2071,-10.78203 -15.2285,-17.17383 v -0.002 c -1.9733,-6.32796 -1.2167,-13.26511 2.252,-20.84961 l 12.875,6.3457 c -1.7836,4.65464 -2.21,8.75217 -1.1172,12.22071 a 0.37799079,0.37799079 0 0 0 0,0.002 c 1.1493,3.57015 3.7762,6.61234 7.8144,9.11524 4.2653,2.64365 8.0716,3.76582 11.416,3.29492 3.3518,-0.47655 5.855,-1.96996 7.3965,-4.45703 0.99,-1.5973 1.3629,-3.28295 1.0938,-5 -0.2241,-1.74964 -1.2442,-3.70881 -3.0157,-5.92383 a 0.37799079,0.37799079 0 0 0 0,-0.002 c -1.23,-1.51272 -4.137,-4.6173 -8.7578,-9.36132 -5.9232,-6.07266 -9.4863,-11.24127 -10.7149,-15.42774 -1.7455,-5.95416 -1.0552,-11.40482 2.0762,-16.45703 2.0111,-3.24477 4.7885,-5.69881 8.3613,-7.38086 1.8058,-0.84443 3.7052,-1.39673 5.6993,-1.6543 z m -561.57427,49.82032 -37.79101,36.21679 a 0.37799079,0.37799079 0 0 0 -0.0117,0.53516 l 52.83008,55.12695 a 0.37799079,0.37799079 0 0 0 0.53515,0.01 l 11.12891,-10.66602 a 0.37799079,0.37799079 0 0 0 0.0117,-0.53515 l -22.18945,-23.1543 22.74023,-21.79297 a 0.37799079,0.37799079 0 0 0 0.0117,-0.5332 l -8.9375,-9.32617 a 0.37799079,0.37799079 0 0 0 -0.5332,-0.0117 l -22.74219,21.79297 -11.98047,-12.50196 26.38867,-25.28906 a 0.37799079,0.37799079 0 0 0 0.01,-0.5332 l -8.93555,-9.32617 a 0.37799079,0.37799079 0 0 0 -0.53516,-0.0117 z m 0.25,0.80664 8.41407,8.78125 -26.38868,25.28711 a 0.37799079,0.37799079 0 0 0 -0.01,0.53515 l 12.50391,13.04883 a 0.37799079,0.37799079 0 0 0 0.53515,0.0117 l 22.74024,-21.79297 8.41406,8.7793 -22.74024,21.79297 a 0.37799079,0.37799079 0 0 0 -0.0117,0.53515 l 22.18945,23.1543 -10.58594,10.14453 -52.30664,-54.58203 z m 670.25977,25.07617 -57.4414,50.30273 a 0.37799079,0.37799079 0 0 0 -0.035,0.53321 l 9.4356,10.77539 a 0.37799079,0.37799079 0 0 0 0.5332,0.0351 l 36.459,-31.92773 -16.7891,54.68945 a 0.37799079,0.37799079 0 0 0 0.076,0.35938 l 10.1914,11.63867 a 0.37799079,0.37799079 0 0 0 0.5332,0.0352 l 57.4414,-50.30469 a 0.37799079,0.37799079 0 0 0 0.035,-0.5332 l -9.4356,-10.7754 a 0.37799079,0.37799079 0 0 0 -0.5332,-0.0352 l -37.3516,32.71094 17.3731,-55.82422 a 0.37799079,0.37799079 0 0 0 -0.076,-0.36133 l -9.8828,-11.2832 a 0.37799079,0.37799079 0 0 0 -0.5332,-0.0352 z m 0.2129,0.81641 9.4941,10.84179 -17.709,56.90039 a 0.37799079,0.37799079 0 0 0 0.6114,0.39649 l 38.0742,-33.34375 8.9394,10.20703 -56.873,49.80664 -9.8047,-11.19531 17.1192,-55.75977 a 0.37799079,0.37799079 0 0 0 -0.6114,-0.39648 l -37.1738,32.55468 -8.9375,-10.20507 z m -759.48048,74.16601 a 0.37799079,0.37799079 0 0 0 -0.51758,0.14063 l -28.13086,49.13086 a 0.37799079,0.37799079 0 0 0 0.14063,0.51562 l 66.26172,37.94141 a 0.37799079,0.37799079 0 0 0 0.51562,-0.14063 l 28.85547,-50.39648 a 0.37799079,0.37799079 0 0 0 -0.14062,-0.51563 l -11.16407,-6.39258 a 0.37799079,0.37799079 0 0 0 -0.51562,0.14063 l -21.00781,36.68945 -17.37891,-9.95117 18.86133,-32.9375 a 0.37799079,0.37799079 0 0 0 -0.14063,-0.51562 l -11.16406,-6.39258 a 0.37799079,0.37799079 0 0 0 -0.51562,0.14062 l -18.85938,32.9375 -14.03516,-8.03515 20.28321,-35.42383 a 0.37799079,0.37799079 0 0 0 -0.13867,-0.51563 z m -0.0488,0.84375 10.55274,6.04297 -20.28321,35.42383 a 0.37799079,0.37799079 0 0 0 0.14063,0.51562 l 14.68945,8.41211 a 0.37799079,0.37799079 0 0 0 0.51563,-0.14062 l 18.86133,-32.9375 10.50781,6.01562 -18.85938,32.93946 a 0.37799079,0.37799079 0 0 0 0.13868,0.51562 l 18.03515,10.32617 a 0.37799079,0.37799079 0 0 0 0.51563,-0.14062 l 21.00781,-36.68946 10.50781,6.01758 -28.48047,49.74024 -65.60547,-37.56446 z m 805.99998,11.40625 c -5.8152,0.49595 -12.1481,2.62832 -19.0059,6.37695 -10.7246,5.86233 -17.582,13.46305 -20.4941,22.7793 -2.8804,9.29635 -1.557,18.99913 3.9258,29.0293 5.4167,9.90947 12.8523,16.19232 22.2617,18.76953 9.4455,2.56182 19.6356,0.84161 30.5117,-5.10352 10.9669,-5.99479 17.9456,-13.69871 20.8555,-23.09375 v -0.002 c 2.9236,-9.35799 1.6499,-19.04692 -3.7832,-28.98633 -3.0002,-5.48858 -6.5464,-9.86278 -10.6406,-13.10742 v -0.002 c -3.0679,-2.45548 -6.7081,-4.27302 -10.9102,-5.45313 -4.185,-1.14926 -8.4265,-1.55242 -12.7149,-1.20703 z m 0.062,0.75391 c 4.2012,-0.33837 8.3489,0.0553 12.4512,1.18164 4.118,1.15651 7.6619,2.92867 10.6445,5.3164 a 0.37799079,0.37799079 0 0 0 0,0.002 c 4.0024,3.1714 7.4857,7.45908 10.4472,12.87695 5.3585,9.80291 6.5882,19.24253 3.7266,28.40039 a 0.37799079,0.37799079 0 0 0 0,0.002 c -2.8432,9.18157 -9.6489,16.72693 -20.4961,22.65625 -10.7559,5.87943 -20.7202,7.53879 -29.9512,5.03516 v 0.002 c -9.2062,-2.52154 -16.4569,-8.62977 -21.7988,-18.40234 -5.4092,-9.89561 -6.6825,-19.35081 -3.8652,-28.44336 v 0 c 2.8463,-9.10595 9.5321,-16.54612 20.1348,-22.3418 6.7909,-3.71208 13.0288,-5.80055 18.707,-6.28515 z m 4.8144,14.46289 c -4.7179,0.0415 -9.9887,1.66939 -15.8066,4.84961 -7.6375,4.17482 -12.5225,9.13639 -14.5781,14.90234 a 0.37799079,0.37799079 0 0 0 0,0.002 c -2.0166,5.72645 -1.5208,11.37692 1.4707,16.84961 2.9912,5.47208 7.4482,8.9178 13.2949,10.26758 5.9199,1.36965 12.7985,-0.12067 20.6172,-4.39453 7.7257,-4.22309 12.6137,-9.10363 14.5859,-14.66992 v -0.002 c 1.9805,-5.51391 1.4107,-11.14508 -1.6777,-16.79493 -3.0893,-5.65168 -7.5692,-9.18461 -13.373,-10.52148 -1.4493,-0.33988 -2.9606,-0.5021 -4.5333,-0.48828 z m 0,0.75586 c 1.5185,-0.0139 2.9718,0.14334 4.3594,0.46875 5.6046,1.29098 9.8748,4.64703 12.8809,10.14648 3.0068,5.50066 3.5398,10.86104 1.6289,16.17969 a 0.37799079,0.37799079 0 0 0 0,0.002 c -1.8868,5.3271 -6.6052,10.0895 -14.2343,14.25977 -7.7199,4.21983 -14.409,5.63572 -20.086,4.32226 -5.6557,-1.30569 -9.8982,-4.58108 -12.8027,-9.89453 -2.9038,-5.31222 -3.3717,-10.69043 -1.4199,-16.23437 v -0.002 c 1.9748,-5.53772 6.6938,-10.37358 14.2285,-14.49218 5.7445,-3.1401 10.8897,-4.71415 15.4453,-4.75586 z m -854.8281,55.8457 a 0.37799079,0.37799079 0 0 0 -0.4746,0.24219 l -4.75196,14.66601 a 0.37799079,0.37799079 0 0 0 0.24219,0.47657 l 28.22852,9.14648 -9.07618,28.01758 -28.23047,-9.14649 a 0.37799079,0.37799079 0 0 0 -0.47656,0.24415 l -4.75195,14.66601 a 0.37799079,0.37799079 0 0 0 0.24414,0.47656 l 72.63672,23.53321 a 0.37799079,0.37799079 0 0 0 0.47656,-0.24219 l 4.75195,-14.66602 a 0.37799079,0.37799079 0 0 0 -0.24414,-0.47656 l -31.40234,-10.17383 9.08008,-28.01758 31.40039,10.17383 a 0.37799079,0.37799079 0 0 0 0.47656,-0.24414 l 4.75195,-14.66601 a 0.37799079,0.37799079 0 0 0 -0.24414,-0.47461 z m 0.12696,0.83594 71.91797,23.30078 -4.51953,13.94922 -31.4004,-10.17578 a 0.37799079,0.37799079 0 0 0 -0.4746,0.24218 l -9.3125,28.73829 a 0.37799079,0.37799079 0 0 0 0.24414,0.47656 l 31.40039,10.17187 -4.51953,13.94727 -71.91797,-23.30078 4.51757,-13.94727 28.23047,9.14649 a 0.37799079,0.37799079 0 0 0 0.47657,-0.24219 l 9.31054,-28.73828 a 0.37799079,0.37799079 0 0 0 -0.24218,-0.47656 l -28.22852,-9.14454 z m 913.40034,8.31055 a 0.37799079,0.37799079 0 0 0 -0.3301,0.01 l -69.5878,36.32813 a 0.37799079,0.37799079 0 0 0 -0.1915,0.42773 l 4.084,16.21094 a 0.37799079,0.37799079 0 0 0 0.3614,0.28711 l 57.6367,0.73437 -50.3985,28.00196 a 0.37799079,0.37799079 0 0 0 -0.1836,0.42187 l 3.9961,15.85938 a 0.37799079,0.37799079 0 0 0 0.3692,0.28515 l 78.5703,-0.66992 a 0.37799079,0.37799079 0 0 0 0.3633,-0.4707 l -3.791,-15.05078 a 0.37799079,0.37799079 0 0 0 -0.3789,-0.28516 l -52.9727,1.61523 47.0312,-25.24804 a 0.37799079,0.37799079 0 0 0 0.1875,-0.42578 l -4.4785,-17.77735 a 0.37799079,0.37799079 0 0 0 -0.3613,-0.28711 l -52.7148,-0.70117 46.6582,-23.2793 a 0.37799079,0.37799079 0 0 0 0.1972,-0.43164 l -3.8554,-15.30273 a 0.37799079,0.37799079 0 0 0 -0.211,-0.25195 z m -0.4043,0.90039 3.6641,14.54492 -47.7754,23.83789 a 0.37799079,0.37799079 0 0 0 0.1621,0.7168 l 53.9785,0.71875 4.336,17.21093 -48.1895,25.86914 a 0.37799079,0.37799079 0 0 0 0.1914,0.71094 l 54.2774,-1.65625 3.5996,14.29102 -77.793,0.66406 -3.8516,-15.28906 51.3848,-28.55078 a 0.37799079,0.37799079 0 0 0 -0.1777,-0.70899 l -58.7657,-0.74805 -3.9414,-15.64257 z m -938.75776,79.32617 a 0.37799079,0.37799079 0 0 0 -0.41797,0.33203 l -6.78125,60.29687 a 0.37799079,0.37799079 0 0 0 0.33398,0.41797 l 12.83594,1.44336 a 0.37799079,0.37799079 0 0 0 0.41797,-0.33203 l 2.48828,-22.13867 62.66602,7.04492 a 0.37799079,0.37799079 0 0 0 0.41797,-0.33203 l 1.72265,-15.32031 a 0.37799079,0.37799079 0 0 0 -0.33398,-0.41797 l -62.66406,-7.04688 2.48242,-22.08789 a 0.37799079,0.37799079 0 0 0 -0.33203,-0.41601 z m 0.28906,0.79297 12.08594,1.35937 -2.48438,22.08594 a 0.37799079,0.37799079 0 0 0 0.33399,0.41797 l 62.66406,7.04492 -1.63672,14.57031 -62.66601,-7.04687 a 0.37799079,0.37799079 0 0 0 -0.41797,0.33398 l -2.48828,22.13867 -12.08399,-1.35937 z m 952.0332,109.92968 a 0.37799079,0.37799079 0 0 0 -0.4258,0.32422 l -2.9941,22.07617 -62.4883,-8.4746 a 0.37799079,0.37799079 0 0 0 -0.4239,0.32421 l -2.0722,15.27735 a 0.37799079,0.37799079 0 0 0 0.3242,0.42383 l 62.4863,8.47461 -2.9863,22.02539 a 0.37799079,0.37799079 0 0 0 0.3242,0.42382 l 12.7988,1.73633 a 0.37799079,0.37799079 0 0 0 0.4258,-0.32422 l 8.1543,-60.12695 a 0.37799079,0.37799079 0 0 0 -0.3242,-0.42383 z m 0.2715,0.79883 12.0507,1.63477 -8.0507,59.3789 -12.0508,-1.63476 2.9863,-22.02539 a 0.37799079,0.37799079 0 0 0 -0.3242,-0.42383 l -62.4883,-8.47461 1.9707,-14.52734 62.4883,8.47265 a 0.37799079,0.37799079 0 0 0 0.4258,-0.32422 z M 761.69922,603.3125 a 0.37799079,0.37799079 0 0 0 -0.37305,0.46094 l 3.44727,15.13281 a 0.37799079,0.37799079 0 0 0 0.37109,0.29492 l 53,-0.41211 -47.5957,24.17383 a 0.37799079,0.37799079 0 0 0 -0.19727,0.41992 l 4.07227,17.875 a 0.37799079,0.37799079 0 0 0 0.35547,0.29492 l 52.68359,1.90039 -47.17383,22.2129 a 0.37799079,0.37799079 0 0 0 -0.20703,0.42578 l 3.50586,15.38672 a 0.37799079,0.37799079 0 0 0 0.53516,0.2539 l 70.39648,-34.73633 a 0.37799079,0.37799079 0 0 0 0.20117,-0.42187 l -3.71289,-16.30078 a 0.37799079,0.37799079 0 0 0 -0.35547,-0.29492 l -57.60156,-2.04493 51.01758,-26.84765 a 0.37799079,0.37799079 0 0 0 0.19336,-0.41992 l -3.63281,-15.94532 a 0.37799079,0.37799079 0 0 0 -0.36329,-0.29297 z m 0.4707,0.76172 77.78711,1.10547 3.50391,15.37109 -52.02149,27.375 a 0.37799079,0.37799079 0 0 0 0.16211,0.71289 l 58.73242,2.08594 3.58399,15.72656 -69.70117,34.39258 -3.33008,-14.625 48.30469,-22.74414 a 0.37799079,0.37799079 0 0 0 -0.14649,-0.71875 l -53.94922,-1.94922 -3.9414,-17.30273 48.76367,-24.76758 a 0.37799079,0.37799079 0 0 0 -0.17383,-0.71485 l -54.30078,0.41993 z m 882.99418,42.95508 a 0.37799079,0.37799079 0 0 0 -0.4825,0.23242 l -5.082,14.55469 a 0.37799079,0.37799079 0 0 0 0.2324,0.48046 l 31.1621,10.88282 -9.7089,27.80468 -31.1622,-10.88085 a 0.37799079,0.37799079 0 0 0 -0.4824,0.23242 l -5.082,14.55468 a 0.37799079,0.37799079 0 0 0 0.2324,0.48243 l 72.086,25.16992 a 0.37799079,0.37799079 0 0 0 0.4824,-0.23242 l 5.082,-14.55469 a 0.37799079,0.37799079 0 0 0 -0.2324,-0.48047 l -28.0156,-9.7832 9.7089,-27.80469 28.0157,9.78125 a 0.37799079,0.37799079 0 0 0 0.4804,-0.23242 l 5.084,-14.55469 a 0.37799079,0.37799079 0 0 0 -0.2324,-0.48242 z m 0.1054,0.83789 71.3731,24.92187 -4.8321,13.8418 -28.0156,-9.7832 a 0.37799079,0.37799079 0 0 0 -0.4824,0.23242 l -9.957,28.51953 a 0.37799079,0.37799079 0 0 0 0.2324,0.48242 l 28.0156,9.78125 -4.834,13.8418 -71.373,-24.92188 4.834,-13.84179 31.1621,10.88086 a 0.37799079,0.37799079 0 0 0 0.4804,-0.23047 l 9.959,-28.52149 a 0.37799079,0.37799079 0 0 0 -0.2324,-0.48047 l -31.1621,-10.88086 z m -791.88669,58.3457 c -7.3516,-0.48336 -15.16699,1.42224 -23.42187,5.69727 -11.09815,5.74749 -18.24747,13.2959 -21.36719,22.62304 -3.13327,9.29073 -2.07667,19.00714 3.13281,29.06641 2.877,5.55534 6.32433,10.00608 10.34571,13.3418 3.01229,2.5239 6.61214,4.42322 10.7871,5.69726 a 0.37799079,0.37799079 0 0 0 0.002,0 c 4.15819,1.24271 8.38859,1.74144 12.68359,1.49219 a 0.37799079,0.37799079 0 0 0 0.002,0 c 5.82483,-0.36558 12.2045,-2.35512 19.14454,-5.94922 10.85321,-5.62065 17.87801,-13.06577 20.99804,-22.31445 a 0.37799079,0.37799079 0 0 0 0,-0.002 c 3.08783,-9.22949 1.98326,-18.95892 -3.27343,-29.10937 -5.19345,-10.02831 -12.48662,-16.47441 -21.83594,-19.26172 a 0.37799079,0.37799079 0 0 0 -0.002,0 c -2.34644,-0.69318 -4.74477,-1.12013 -7.19531,-1.28125 z m -0.0547,0.75195 c 2.39738,0.15828 4.74202,0.57647 7.03516,1.25391 9.14739,2.72711 16.25916,8.995 21.38086,18.88477 5.18618,10.01428 6.24865,19.49627 3.22852,28.52343 -3.04989,9.03913 -9.89974,16.3264 -20.62891,21.88282 -6.87236,3.55905 -13.15619,5.50793 -18.84375,5.86523 -4.20771,0.24419 -8.34596,-0.24109 -12.42188,-1.45898 h -0.002 c -4.09034,-1.24846 -7.59153,-3.10112 -10.51953,-5.55469 a 0.37799079,0.37799079 0 0 0 -0.002,0 c -3.93041,-3.26026 -7.3168,-7.62653 -10.15625,-13.10938 -5.1376,-9.92046 -6.15593,-19.38508 -3.08985,-28.47656 a 0.37799079,0.37799079 0 0 0 0,-0.002 c 3.04816,-9.11558 10.02275,-16.50652 21,-22.19141 8.16366,-4.22778 15.82741,-6.09202 23.01953,-5.61719 z m -0.25781,14.73828 c -4.79852,-0.0658 -10.17116,1.4541 -16.10547,4.52735 -7.81917,4.04939 -12.81413,8.82039 -14.91015,14.3418 -2.1034,5.46815 -1.66024,11.11052 1.30078,16.82812 2.96199,5.71946 7.36236,9.35184 13.13476,10.81836 5.76521,1.48902 12.58334,0.16119 20.4336,-3.9043 7.72907,-4.00272 12.72199,-8.8538 14.90625,-14.57226 a 0.37799079,0.37799079 0 0 0 0,-0.002 c 2.14438,-5.67984 1.77639,-11.33862 -1.0918,-16.87695 -2.86756,-5.53712 -7.24635,-9.08378 -13.06055,-10.56445 h -0.002 c -1.47137,-0.37517 -3.00663,-0.57377 -4.60547,-0.59571 z m -0.0156,0.75782 c 1.54589,0.0207 3.02401,0.21024 4.43554,0.57031 5.62517,1.43204 9.79341,4.80057 12.57813,10.17773 2.78439,5.37653 3.13097,10.76421 1.05469,16.26368 -2.09806,5.49278 -6.92115,10.22071 -14.54688,14.16992 -7.75121,4.01419 -14.37669,5.26938 -19.89648,3.84375 a 0.37799079,0.37799079 0 0 0 -0.002,0 c -5.57426,-1.41618 -9.76818,-4.86819 -12.65039,-10.4336 -2.88283,-5.56662 -3.29509,-10.93643 -1.26562,-16.21093 a 0.37799079,0.37799079 0 0 0 0,-0.002 c 2.00571,-5.2835 6.83016,-9.93915 14.55078,-13.9375 5.85929,-3.0344 11.10451,-4.50364 15.74219,-4.4414 z m 762.1777,2.57617 a 0.37799079,0.37799079 0 0 0 -0.5176,0.12891 l -29.9707,49.74218 a 0.37799079,0.37799079 0 0 0 0.127,0.51758 l 11.0195,6.63867 a 0.37799079,0.37799079 0 0 0 0.5196,-0.12695 l 21.8183,-36.21289 17.1524,10.33398 -19.5879,32.50977 a 0.37799079,0.37799079 0 0 0 0.1289,0.51953 l 11.0195,6.63867 a 0.37799079,0.37799079 0 0 0 0.5176,-0.1289 l 19.5898,-32.50977 13.8496,8.3457 -21.0664,34.96485 a 0.37799079,0.37799079 0 0 0 0.1289,0.51758 l 11.0645,6.66601 a 0.37799079,0.37799079 0 0 0 0.5176,-0.12891 l 29.2187,-48.49218 a 0.37799079,0.37799079 0 0 0 -0.1289,-0.51758 z m -0.064,0.8418 64.7519,39.01757 -28.8281,47.84375 -10.416,-6.27539 21.0664,-34.96484 a 0.37799079,0.37799079 0 0 0 -0.1289,-0.51758 l -14.4981,-8.73633 a 0.37799079,0.37799079 0 0 0 -0.5195,0.12891 l -19.5879,32.50977 -10.3711,-6.25 19.5879,-32.50977 a 0.37799079,0.37799079 0 0 0 -0.1289,-0.51953 l -17.8008,-10.72461 a 0.37799079,0.37799079 0 0 0 -0.5176,0.12891 l -21.8203,36.21289 -10.3711,-6.24805 z m -705.70705,50.4707 -58.53321,49.0293 a 0.37799079,0.37799079 0 0 0 -0.0469,0.5332 l 9.19726,10.97851 a 0.37799079,0.37799079 0 0 0 0.53321,0.0469 l 38.06054,-31.88086 -18.5957,55.42773 a 0.37799079,0.37799079 0 0 0 0.0684,0.36329 l 9.63281,11.49804 a 0.37799079,0.37799079 0 0 0 0.53125,0.0469 l 58.53321,-49.0293 a 0.37799079,0.37799079 0 0 0 0.0469,-0.53125 l -9.19726,-10.98047 a 0.37799079,0.37799079 0 0 0 -0.53125,-0.0469 l -37.15039,31.11914 17.98632,-54.3086 a 0.37799079,0.37799079 0 0 0 -0.0703,-0.36132 l -9.93164,-11.85743 a 0.37799079,0.37799079 0 0 0 -0.5332,-0.0469 z m 0.19531,0.82226 9.55469,11.40625 -18.33789,55.36915 a 0.37799079,0.37799079 0 0 0 0.60156,0.41015 l 37.88086,-31.73047 8.71289,10.40039 -57.95508,48.54297 -9.25391,-11.04687 18.95508,-56.4961 a 0.37799079,0.37799079 0 0 0 -0.59961,-0.41015 l -38.79882,32.5 -8.7129,-10.40235 z m 636.88864,43.07422 -11.3594,10.42383 a 0.37799079,0.37799079 0 0 0 -0.021,0.5332 l 21.6816,23.62891 -23.207,21.29688 a 0.37799079,0.37799079 0 0 0 -0.024,0.5332 l 8.7344,9.51758 a 0.37799079,0.37799079 0 0 0 0.5332,0.0215 l 23.207,-21.29492 11.709,12.75977 -26.9297,24.71093 a 0.37799079,0.37799079 0 0 0 -0.023,0.53516 l 8.7324,9.51562 a 0.37799079,0.37799079 0 0 0 0.5352,0.0234 l 38.5664,-35.39062 a 0.37799079,0.37799079 0 0 0 0.023,-0.53321 l -51.623,-56.25781 a 0.37799079,0.37799079 0 0 0 -0.5352,-0.0234 z m 0.2344,0.8125 51.1113,55.70118 -38.0117,34.8789 -8.2207,-8.96094 26.9297,-24.71093 a 0.37799079,0.37799079 0 0 0 0.023,-0.53321 l -12.2187,-13.3164 a 0.37799079,0.37799079 0 0 0 -0.5352,-0.0234 l -23.207,21.29492 -8.2227,-8.95898 23.2071,-21.29492 a 0.37799079,0.37799079 0 0 0 0.023,-0.53516 L 1535.9766,830.9707 Z M 1000.5996,870.375 c -3.49915,-0.12667 -6.82731,0.52638 -9.96874,1.95898 -4.1786,1.9056 -7.49223,4.7317 -9.91406,8.45899 -2.65745,4.08989 -4.03263,8.10987 -4.09571,12.04492 -0.1104,3.93043 0.8571,7.70639 2.89258,11.29883 2.2e-4,3.9e-4 -2.1e-4,0.002 0,0.002 4.4e-4,7.7e-4 0.002,10e-4 0.002,0.002 1.98841,3.6031 5.6461,8.17397 10.98047,13.75586 5.31132,5.55777 8.31866,9.58426 9.00977,11.84766 0.55569,1.82625 0.36708,3.39567 -0.55859,4.82031 -1.02174,1.5725 -2.4264,2.37299 -4.3379,2.46875 -3.02242,0.15664 -6.38901,-0.94516 -10.10156,-3.35742 -3.59724,-2.33733 -5.77304,-4.78027 -6.59375,-7.29101 a 0.37799079,0.37799079 0 0 0 -0.004,-0.006 c -0.86724,-2.50289 -0.55506,-5.53382 1.00586,-9.12891 a 0.37799079,0.37799079 0 0 0 -0.1543,-0.47461 l -13.29688,-7.83203 a 0.37799079,0.37799079 0 0 0 -0.51562,0.13086 c -3.66129,6.08634 -4.60035,12.30959 -2.78516,18.57812 1.79245,6.27113 6.76608,12.02043 14.84766,17.27149 4.95247,3.2179 9.68929,5.23294 14.21094,6.02929 4.49181,0.77712 8.64945,0.33397 12.43749,-1.33984 a 0.37799079,0.37799079 0 0 0 0,-0.002 c 3.7301,-1.6594 6.6883,-4.15811 8.8457,-7.47852 3.3451,-5.14813 4.1885,-10.85561 2.5234,-17.01953 -1.1974,-4.4285 -4.7278,-9.72765 -10.5625,-15.9707 v 0 c -4.51293,-4.83579 -7.36165,-8.01473 -8.51167,-9.49219 l -0.002,-0.002 c -1.67724,-2.19208 -2.57454,-4.07762 -2.73633,-5.61133 a 0.37799079,0.37799079 0 0 0 0,-0.01 c -0.20945,-1.54548 0.14311,-3.01575 1.08594,-4.46679 1.47052,-2.26319 3.74757,-3.57575 6.94536,-3.96094 3.1092,-0.37029 6.7225,0.74536 10.8417,3.42187 3.8775,2.51939 6.2899,5.47047 7.3028,8.86329 0.9816,3.36621 0.5206,7.36631 -1.4434,12.02734 a 0.37799079,0.37799079 0 0 0 0.1739,0.48242 l 13.373,6.94922 a 0.37799079,0.37799079 0 0 0 0.5117,-0.16797 c 3.8395,-7.77173 4.82,-15.02382 2.8926,-21.70117 a 0.37799079,0.37799079 0 0 0 0,-0.002 c -1.9494,-6.65717 -7.0309,-12.62709 -15.1738,-17.91797 -5.5905,-3.63244 -10.7774,-5.90244 -15.5723,-6.79297 -1.2036,-0.21528 -2.3883,-0.3445 -3.5547,-0.38672 z m -3.35351,0.88281 c 2.17737,-0.25266 4.43301,-0.17035 6.77341,0.24805 4.6642,0.86626 9.767,3.08925 15.2989,6.68359 8.0456,5.22767 12.9753,11.06194 14.8593,17.4961 1.8377,6.36836 0.9322,13.28661 -2.6972,20.79492 l -12.7364,-6.61719 c 1.8826,-4.61545 2.3975,-8.70231 1.3789,-12.19336 a 0.37799079,0.37799079 0 0 0 0,-0.002 c -1.0729,-3.59387 -3.6314,-6.69076 -7.6152,-9.2793 -4.2079,-2.73412 -7.9901,-3.93845 -11.3438,-3.53906 -3.36118,0.40488 -5.89598,1.84523 -7.49023,4.29883 -1.02232,1.57338 -1.4313,3.2491 -1.20117,4.96875 6e-5,5.5e-4 -6e-5,0.001 0,0.002 0.18562,1.75497 1.16364,3.7382 2.88867,5.99219 a 0.37799079,0.37799079 0 0 0 0.002,0.002 c 1.19747,1.53864 4.03824,4.70333 8.55663,9.54492 a 0.37799079,0.37799079 0 0 0 0,0.002 c 5.7922,6.19772 9.244,11.43865 10.3828,15.65039 1.618,5.99006 0.8108,11.42595 -2.4278,16.41015 -2.0801,3.20156 -4.9088,5.59579 -8.5175,7.20117 -3.6462,1.61113 -7.63531,2.04223 -12.00194,1.28711 h -0.002 c -4.39532,-0.77441 -9.03966,-2.74191 -13.92773,-5.91796 -7.98968,-5.19135 -12.80924,-10.81411 -14.53321,-16.84766 a 0.37799079,0.37799079 0 0 0 0,-0.002 c -1.72576,-5.95972 -0.86393,-11.81086 2.54297,-17.64063 l 12.69532,7.47852 c -1.47935,3.55445 -1.84771,6.69404 -0.9336,9.33984 0.89784,2.7467 3.21864,5.29721 6.90039,7.68945 3.79936,2.46866 7.31891,3.64611 10.55274,3.47852 2.1109,-0.10631 3.79706,-1.06635 4.93164,-2.8125 1.04182,-1.60342 1.25492,-3.45804 0.64842,-5.45117 -0.79154,-2.59235 -3.84843,-6.56369 -9.18553,-12.14844 -5.3125,-5.559 -8.93834,-10.10718 -10.86719,-13.60352 a 0.37799079,0.37799079 0 0 0 -0.002,-0.004 c -1.97594,-3.48591 -2.90542,-7.11353 -2.79883,-10.90821 a 0.37799079,0.37799079 0 0 0 0,-0.004 c 0.0592,-3.7692 1.37409,-7.64812 3.97461,-11.65039 2.34556,-3.60991 5.53409,-6.33225 9.59375,-8.1836 2.02484,-0.9234 4.12474,-1.51093 6.30273,-1.76367 z m 489.72461,4.71094 c -1.8666,-0.1544 -3.8347,-0.0988 -5.9004,0.16406 -4.1849,0.57997 -9.3703,2.8025 -15.6016,6.64453 -5.1698,3.18761 -8.9723,6.43198 -11.4043,9.75782 a 0.37799079,0.37799079 0 0 0 0,0.002 c -2.4001,3.33715 -3.8769,6.73571 -4.4121,10.18555 -0.5644,3.46674 -0.1946,7.0654 1.0996,10.77343 1.2981,3.71945 4.351,9.45315 9.168,17.26563 l 21.0488,34.13672 a 0.37799079,0.37799079 0 0 0 0.5195,0.12304 l 13.1231,-8.09179 a 0.37799079,0.37799079 0 0 0 0.123,-0.51953 l -22.1699,-35.95508 c -3.1659,-5.1347 -5.2369,-8.92801 -6.2012,-11.33594 -0.949,-2.36976 -0.9688,-4.83842 -0.051,-7.46875 3e-4,-6.5e-4 -2e-4,-10e-4 0,-0.002 0.9222,-2.55853 3.1923,-4.98758 6.8711,-7.25586 3.6161,-2.22955 6.9189,-3.18295 9.9258,-2.91016 7e-4,7e-5 0,-7e-5 0,0 3.0169,0.32316 5.5724,1.59788 7.7187,3.85352 1.2914,1.39686 3.6978,4.92063 7.1367,10.49804 l 21.7051,35.20118 a 0.37799079,0.37799079 0 0 0 0.5195,0.12304 l 13.1231,-8.09179 a 0.37799079,0.37799079 0 0 0 0.123,-0.51954 l -21.3769,-34.66992 c -4.4908,-7.28336 -8.3148,-12.53181 -11.5059,-15.76562 a 0.37799079,0.37799079 0 0 0 0,-0.002 c -2.1844,-2.19218 -4.9491,-3.87378 -8.2774,-5.04687 -1.6641,-0.57472 -3.4302,-0.93935 -5.2969,-1.09375 z m -0.064,0.75391 c 1.8084,0.14951 3.514,0.50169 5.1152,1.05468 3.2366,1.14139 5.8953,2.76478 7.9902,4.86719 3.1152,3.15744 6.926,8.37401 11.4004,15.63086 l 21.1777,34.34766 -12.4785,7.69531 -21.5058,-34.88086 c -3.4481,-5.59228 -5.8303,-9.10544 -7.2305,-10.61914 a 0.37799079,0.37799079 0 0 0 0,-0.004 c -2.2565,-2.37143 -5.0037,-3.7434 -8.1875,-4.08398 a 0.37799079,0.37799079 0 0 0 -0.01,0 c -3.2157,-0.29339 -6.6848,0.72907 -10.3964,3.01758 -3.7675,2.32292 -6.1844,4.86105 -7.1875,7.64843 a 0.37799079,0.37799079 0 0 0 0,0.004 c -0.9691,2.77533 -0.9515,5.46316 0.065,8 1.0008,2.49924 3.0839,6.30241 6.2597,11.45313 l 21.9707,35.63281 -12.4804,7.69336 -20.8497,-33.81446 c -4.8049,-7.79297 -7.8398,-13.5207 -9.0957,-17.11914 -1.2594,-3.60847 -1.6118,-7.0698 -1.0683,-10.40429 a 0.37799079,0.37799079 0 0 0 0,-0.004 c 0.5142,-3.31485 1.935,-6.59756 4.2773,-9.85547 v -0.004 c 2.3484,-3.21031 6.0774,-6.40348 11.1914,-9.55665 6.1806,-3.81081 11.2956,-5.98297 15.3027,-6.53906 2.0193,-0.25699 3.9318,-0.30966 5.7403,-0.16015 z m -425.5743,26.08593 a 0.37799079,0.37799079 0 0 0 -0.5039,0.18164 l -32.3945,69.14258 a 0.37799079,0.37799079 0 0 0 0.1836,0.50196 l 13.959,6.54101 a 0.37799079,0.37799079 0 0 0 0.5039,-0.18164 l 32.3945,-69.14258 a 0.37799079,0.37799079 0 0 0 -0.1836,-0.50195 z m 0.021,0.84571 13.2754,6.2207 -32.0742,68.45703 -13.2754,-6.2207 z m 342.9258,11.52734 -14.3984,5.51172 a 0.37799079,0.37799079 0 0 0 -0.2168,0.48828 l 22.5429,58.89063 -20.7578,7.94726 a 0.37799079,0.37799079 0 0 0 -0.2168,0.48828 l 4.6172,12.06249 a 0.37799079,0.37799079 0 0 0 0.4883,0.2188 l 56.668,-21.6934 a 0.37799079,0.37799079 0 0 0 0.2168,-0.48828 l -4.6172,-12.0625 a 0.37799079,0.37799079 0 0 0 -0.4883,-0.2168 l -20.8067,7.9629 -22.5429,-58.89063 a 0.37799079,0.37799079 0 0 0 -0.4883,-0.21875 z m -0.084,0.83984 22.5449,58.89258 a 0.37799079,0.37799079 0 0 0 0.4883,0.21875 l 20.8067,-7.96484 4.3476,11.35742 -55.9629,21.42188 -4.3476,-11.35743 20.7578,-7.94531 a 0.37799079,0.37799079 0 0 0 0.2187,-0.48828 l -22.5449,-58.89258 z m -274.1601,14.36914 a 0.37799079,0.37799079 0 0 0 -0.4473,0.29297 l -2.6524,12.58789 a 0.37799079,0.37799079 0 0 0 0.2911,0.44727 l 41.3711,8.71484 -4.127,19.59571 -37.1406,-7.82422 a 0.37799079,0.37799079 0 0 0 -0.4492,0.29297 l -2.6504,12.58789 a 0.37799079,0.37799079 0 0 0 0.291,0.44726 l 37.1406,7.82422 -3.332,15.82418 -39.9453,-8.41402 a 0.37799079,0.37799079 0 0 0 -0.4473,0.29101 l -2.6621,12.64061 a 0.37799079,0.37799079 0 0 0 0.291,0.4473 l 55.4004,11.6699 a 0.37799079,0.37799079 0 0 0 0.4473,-0.293 l 15.7382,-74.71481 a 0.37799079,0.37799079 0 0 0 -0.291,-0.44726 z m 0.2128,0.81836 56.086,11.81446 -15.582,73.97456 -54.6582,-11.5136 2.5058,-11.90042 39.9434,8.41402 a 0.37799079,0.37799079 0 0 0 0.4472,-0.291 l 3.4903,-16.56442 a 0.37799079,0.37799079 0 0 0 -0.293,-0.44727 l -37.1406,-7.82422 2.4961,-11.84765 37.1406,7.82422 a 0.37799079,0.37799079 0 0 0 0.4473,-0.29297 l 4.2851,-20.33399 a 0.37799079,0.37799079 0 0 0 -0.293,-0.44922 l -41.3691,-8.71289 z m 201.2618,5.26368 c -2.8234,0.0893 -6.0324,0.46637 -9.6328,1.125 -5.9744,1.09288 -10.6983,2.7354 -14.1719,4.95117 -3.4479,2.23793 -6.0573,4.86861 -7.8086,7.88867 -1.785,3.02549 -2.7461,6.51213 -2.8867,10.4375 -0.141,3.93694 0.62,10.38768 2.2715,19.41602 l 7.2168,39.44918 a 0.37799079,0.37799079 0 0 0 0.4394,0.3047 l 15.1661,-2.7754 a 0.37799079,0.37799079 0 0 0 0.3027,-0.4394 l -7.5996,-41.5508 c -1.0854,-5.93381 -1.6379,-10.22073 -1.6621,-12.81446 -0.024,-2.55234 0.852,-4.85926 2.6621,-6.97656 v -0.002 c 1.7881,-2.04968 4.785,-3.48976 9.0372,-4.26758 4.1786,-0.76439 7.604,-0.45133 10.3066,0.89453 2.694,1.39628 4.6118,3.50981 5.793,6.39063 2e-4,5.4e-4 -3e-4,10e-4 0,0.002 0.696,1.77061 1.6589,5.92799 2.8379,12.37305 l 7.4414,40.67969 a 0.37799079,0.37799079 0 0 0 0.4394,0.3047 l 15.166,-2.7754 a 0.37799079,0.37799079 0 0 0 0.3047,-0.4395 l -7.3301,-40.06442 c -1.5396,-8.41687 -3.197,-14.69737 -4.9961,-18.86914 a 0.37799079,0.37799079 0 0 0 0,-0.002 c -1.2393,-2.83572 -3.2037,-5.4055 -5.8789,-7.70703 a 0.37799079,0.37799079 0 0 0 0,-0.002 c -2.6836,-2.27944 -6.0553,-3.92144 -10.0957,-4.93164 -2.055,-0.4896 -4.4911,-0.68894 -7.3144,-0.59961 z m 0.023,0.75976 c 2.7729,-0.0874 5.146,0.10593 7.1133,0.57422 3.9495,0.98748 7.2049,2.58017 9.7871,4.77344 2.6019,2.23899 4.4909,4.7155 5.6797,7.43554 v 0 c 1.7565,4.07304 3.413,10.31743 4.9473,18.70508 l 7.2617,39.6934 -14.4219,2.6367 -7.373,-40.30666 c -1.1822,-6.46261 -2.1239,-10.60071 -2.8789,-12.51953 a 0.37799079,0.37799079 0 0 0 0,-0.006 c -1.2414,-3.02892 -3.3037,-5.30398 -6.1465,-6.77734 a 0.37799079,0.37799079 0 0 0 -0.01,-0.002 c -2.8898,-1.44102 -6.4939,-1.74947 -10.7832,-0.96484 -4.3538,0.79641 -7.5279,2.28465 -9.4746,4.51758 a 0.37799079,0.37799079 0 0 0 0,0.004 c -1.9107,2.23403 -2.871,4.74401 -2.8457,7.47657 0.025,2.69206 0.5851,6.99104 1.6738,12.94336 l 7.5333,41.17966 -14.4219,2.6367 -7.1485,-39.07808 c -1.6474,-9.0058 -2.3962,-15.44505 -2.2597,-19.25391 0.1367,-3.81948 1.066,-7.17246 2.7832,-10.08203 a 0.37799079,0.37799079 0 0 0 0,-0.002 c 1.6828,-2.90192 4.1971,-5.44579 7.5625,-7.63086 v -0.002 c 3.3538,-2.13843 7.9867,-3.76073 13.8965,-4.84179 3.5722,-0.65345 6.7471,-1.02189 9.5215,-1.10938 z m -129.9258,7.75195 a 0.37799079,0.37799079 0 0 0 -0.3301,0.57422 l 9.0743,15.04883 c 3.5847,6.00449 6.4502,10.19455 8.6347,12.59766 1.9654,2.19636 4.4911,4.21317 7.4512,6.08984 -6.3101,0.95481 -11.205,3.15998 -14.543,6.7207 a 0.37799079,0.37799079 0 0 0 0,0.002 c -3.4953,3.76332 -5.2937,8.58037 -5.3906,14.38278 -0.076,4.5753 0.986,8.6829 3.1875,12.2891 2.2014,3.6061 5.2032,6.1507 8.9707,7.5957 3.7428,1.4833 9.6738,2.2677 17.8515,2.4043 l 32.4453,0.5429 a 0.37799079,0.37799079 0 0 0 0.3828,-0.373 l 1.2754,-76.34374 a 0.37799079,0.37799079 0 0 0 -0.3711,-0.38281 l -15.414,-0.25781 a 0.37799079,0.37799079 0 0 0 -0.3848,0.37109 l -0.5254,31.49219 -2.748,-0.0449 c -3.5202,-0.0588 -6.0751,-0.40389 -7.6153,-0.99024 a 0.37799079,0.37799079 0 0 0 -0.01,-0.002 c -1.553,-0.55781 -3.0279,-1.60131 -4.4277,-3.15234 a 0.37799079,0.37799079 0 0 0 0,-0.004 c -1.3826,-1.49774 -4.0414,-5.28191 -7.8965,-11.2793 a 0.37799079,0.37799079 0 0 0 0,-0.002 l -10.8672,-16.79687 a 0.37799079,0.37799079 0 0 0 -0.3105,-0.17383 z m 0.6699,0.76758 17.5508,0.29297 10.7578,16.63086 c 3.8602,6.00518 6.4919,9.77212 7.9746,11.37891 1.4619,1.61972 3.0378,2.74516 4.7266,3.35351 1.7036,0.64858 4.3109,0.98149 7.8731,1.04102 l 3.125,0.0527 a 0.37799079,0.37799079 0 0 0 0.3847,-0.37304 l 0.5254,-31.49219 14.6582,0.24609 -1.2637,75.58792 -32.0644,-0.5371 c -8.1372,-0.1359 -14.0188,-0.9373 -17.5899,-2.3535 -3.6167,-1.3871 -6.4705,-3.8021 -8.5957,-7.2832 -2.125,-3.481 -3.1525,-7.4296 -3.0781,-11.8808 0.094,-5.65334 1.8237,-10.25813 5.1875,-13.88093 v -0.002 c 3.3555,-3.5783 8.3336,-5.80773 14.9902,-6.66016 a 0.37799079,0.37799079 0 0 0 0.1484,-0.69726 c -3.2745,-1.98423 -5.9514,-4.14397 -8.0351,-6.47266 a 0.37799079,0.37799079 0 0 0 0,-0.002 c -2.1115,-2.32216 -4.9757,-6.4921 -8.5508,-12.48047 a 0.37799079,0.37799079 0 0 0 0,-0.002 z m 40.4122,43.98828 c -7.4055,-0.12374 -11.993,0.0833 -13.9903,0.72461 -1.9191,0.6162 -3.4554,1.7217 -4.5683,3.29688 -1.1179,1.582 -1.6893,3.56545 -1.7286,5.91406 a 0.37799079,0.37799079 0 0 0 0,0.002 c -0.044,2.63432 0.6402,4.81562 2.0665,6.47842 1.3896,1.6947 3.3953,2.7778 5.9531,3.2481 a 0.37799079,0.37799079 0 0 0 0.01,0 c 1.3318,0.2077 5.0442,0.3467 11.2969,0.4512 l 12.0293,0.2012 a 0.37799079,0.37799079 0 0 0 0.3848,-0.3711 l 0.3222,-19.373 a 0.37799079,0.37799079 0 0 0 -0.371,-0.38281 z m -0.014,0.75586 11.0273,0.18555 -0.3105,18.61526 -11.6524,-0.1953 c -6.2435,-0.1044 -10.0239,-0.2622 -11.1875,-0.4434 -2.4231,-0.4468 -4.2363,-1.4404 -5.5,-2.9824 a 0.37799079,0.37799079 0 0 0 -0.01,-0.01 c -1.2953,-1.5075 -1.9302,-3.4775 -1.8887,-5.97855 0.037,-2.23409 0.5735,-4.0519 1.5898,-5.49023 1.0211,-1.44515 2.3998,-2.44349 4.1817,-3.01563 1.7037,-0.54703 6.3619,-0.81088 13.7461,-0.6875 z"
       id="path1" />
  </g>
</svg>
